<?xml version="1.0" encoding="utf-8"?>
<!-- Generator: Adobe Illustrator 23.0.4, SVG Export Plug-In . SVG Version: 6.00 Build 0)  -->
<svg version="1.1" id="Layer_1" xmlns="http://www.w3.org/2000/svg" xmlns:xlink="http://www.w3.org/1999/xlink" x="0px" y="0px"
	 viewBox="0 0 1280 1280" enable-background="new 0 0 1280 1280" xml:space="preserve">
<g transform="translate(0.000000,1280.000000) scale(0.100000,-0.100000)">
	<path fill="#FFFFFF" d="M6706,7.6c1468,78,2833,633,3930,1599c129,114,446,431,560,560c828,941,1365,2099,1539,3325
		c48,337,60,509,60,905c1,440-18,675-84,1077c-269,1620-1164,3075-2510,4078c-797,594-1746,997-2728,1160c-396,65-642,85-1072,85
		s-676-20-1072-85c-1620-269-3075-1164-4078-2510c-594-797-997-1746-1160-2728c-65-396-85-642-85-1072c0-428,24-721,90-1105
		c372-2161,1868-4010,3910-4833c584-235,1167-374,1835-437C5998,11.6,6550-0.4,6706,7.6z M7522,1808.6c485,840,1476,2556,2202,3813
		c725,1257,1495,2590,1710,2963l392,678l86-174c427-866,638-1836,616-2822c-21-919-228-1766-627-2575c-318-642-701-1166-1231-1685
		c-468-458-961-807-1554-1100c-598-295-1187-478-1830-570c-218-31-627-68-643-59C6641,278.6,7037,967.6,7522,1808.6z M5756,306.6
		c-733,77-1402,271-2070,600c-588,290-1084,641-1544,1090c-443,433-774,857-1065,1364c-1008,1754-1074,3937-175,5746
		c40,80,76,145,80,145s9-7,13-15c5-14,574-1000,3556-6165c1593-2760,1610-2788,1610-2792C6161,273.6,5910,290.6,5756,306.6z
		 M5339,2244.6c-1012,1753-1355,2346-3264,5653c-464,803-846,1468-850,1477c-6,16,343,17,5176,17c4597,0,5181-2,5176-15
		c-3-8-458-799-1011-1757c-554-959-1716-2973-2583-4475c-867-1503-1579-2732-1582-2732S5920,1236.6,5339,2244.6z M1293,9783.6
		c766,1147,1856,1987,3143,2425c1174,399,2479,428,3680,82c1270-366,2416-1167,3217-2249c69-94,220-313,252-368c6-9-1034-12-5184-12
		H1211L1293,9783.6z"/>
</g>
</svg>
